<svg xmlns:svg="http://www.w3.org/2000/svg" xmlns="http://www.w3.org/2000/svg" viewBox="0 -256 1792 1792" version="1.1" width="100%" height="100%">
  <g transform="matrix(1,0,0,-1,121.49153,1285.4237)">
    <path d="m1024 640q0 106-75 181-75 75-181 75-106 0-181-75-75-75-75-181 0-106 75-181 75-75 181-75 106 0 181 75 75 75 75 181zm512 109V527q0-12-8-23-8-11-20-13l-185-28q-19-54-39-91 35-50 107-138 10-12 10-25 0-13-9-23-27-37-99-108-72-71-94-71-12 0-26 9l-138 108q-44-23-91-38-16-136-29-186-7-28-36-28H657q-14 0-24.5 8.5Q622-111 621-98L593 86q-49 16-90 37L362 16Q352 7 337 7 323 7 312 18 186 132 147 186q-7 10-7 23 0 12 8 23 15 21 51 66.5 36 45.5 54 70.5-27 50-41 99L29 495Q16 497 8 507.5 0 518 0 531v222q0 12 8 23 8 11 19 13l186 28q14 46 39 92-40 57-107 138-10 12-10 24 0 10 9 23 26 36 98.5 107.5 72.5 71.5 94.5 71.5 13 0 26-10l138-107q44 23 91 38 16 136 29 186 7 28 36 28h222q14 0 24.5-8.5Q914 1391 915 1378l28-184q49-16 90-37l142 107q9 9 24 9 13 0 25-10 129-119 165-170 7-8 7-22 0-12-8-23-15-21-51-66.5-36-45.5-54-70.5 26-50 41-98l183-28q13-2 21-12.5 8-10.5 8-23.5z" fill="#4d4d4d"/>
  </g>
</svg>