<svg xmlns="http://www.w3.org/2000/svg" width="256" height="256" viewBox="0 0 256 256"><path fill="#B52E31" d="M248.16 42.064L126.422.55v254.897l102.022-56.462 19.716-156.92zm0 0"/><path fill="#E23237" d="M7.84 42.813l18.134 156.923L126.42 255.45V.544L7.84 42.813zm0 0"/><g><path fill="#FFF" d="M116.64 145.668v23.23s.23 36.568-33.12 36.568c-33.348 0-33.118-36.57-33.118-36.57V69.31s-.23-36.57 33.12-36.57c33.35 0 33.12 36.57 33.12 36.57v23.23H93.41V69.31s.92-12.42-9.43-12.42c-8.74 0-8.74 12.42-8.74 12.42v99.588s0 12.42 8.74 12.42c10.35 0 9.43-12.42 9.43-12.42v-23.23h23.23z"/><path fill="#C8C8C8" d="M137.34 203.627V34.58h21.85c29.67 0 45.31 11.27 45.31 44.85 0 15.64-3.45 24.61-15.41 34.96 0 0 17.25 7.82 17.25 41.4 0 24.838-8.74 46.687-38.41 47.838h-30.59zM162.18 59.19v45.08c4.6 0 18.4.69 18.4-22.54s-13.8-22.54-18.4-22.54zm0 67.85v51.978c4.6 0 18.4 1.84 18.4-25.99s-13.8-25.99-18.4-25.99z"/></g></svg>